<?xml version="1.0" encoding="UTF-8" standalone="no"?>
<!DOCTYPE svg  PUBLIC '-//W3C//DTD SVG 1.1//EN'  'http://www.w3.org/Graphics/SVG/1.1/DTD/svg11.dtd'>
<svg xmlns="http://www.w3.org/2000/svg" version="1.1">
<defs>
<font id="SaveurSans-Bold" horiz-adv-x="1238">
<font-face font-weight="400" bbox="-1 -441 1707.54 1816" unicode-range="U+0020-00FD" cap-height="1433" underline-position="-442" descent="-410" panose-1="2 0 5 0 0 0 0 0 0 0" underline-thickness="150" font-family="Saveur Sans" units-per-em="2048" ascent="1638" x-height="1429"/>
<missing-glyph/>
<glyph horiz-adv-x="595" glyph-name="space" unicode=" "/>
<glyph d="M135 1439v-987h334v987h-334zM491 189q0 -78 -55.5 -133.5t-133.5 -55.5t-133.5 55.5t-55.5 133.5t55.5 133.5t133.5 55.5t133.5 -55.5t55.5 -133.5z" horiz-adv-x="604" glyph-name="exclam" unicode="!"/>
<glyph d="M391 1573h-233l-88 -334l178 -3zM661 1573h-233l-88 -334l179 -3z" horiz-adv-x="739" glyph-name="quotedbl" unicode='&quot;'/>
<glyph d="M1333 1434h-277l-70 -287h-164l70 287h-278l-70 -287h-261l-67 -269h261l-75 -306h-261l-67 -269h262l-75 -303h278l75 303h164l-75 -303h278l75 303h267l68 269h-269l75 306h273l68 269h-275zM680 572l75 306h165l-75 -306h-165z" horiz-adv-x="1621" glyph-name="numbersign" unicode="#"/>
<glyph d="M384 377l-300 -128q48 -115 160.5 -187.5t249.5 -80.5v-112h98v117l29 4q158 31 253.5 148.5t97.5 283.5q3 178 -109 299q-40 46 -113 98q-34 23 -64 42l-32 20l-33 19q-2 2 -7 4.5l-7 3.5l-7 5l-8 4v209q27 -11 44 -32l248 212q-113 132 -292 152v127h-98v-127 q-155 -15 -257.5 -120t-113.5 -262q-12 -165 110 -296q41 -44 105 -89q12 -9 50 -32l32 -19l9 -5q26 -14 65 -39v-287q-39 5 -69 23.5t-41 44.5zM448 1053q5 56 46 74v-146q-48 39 -46 72zM647 426q-2 -80 -55 -105v210q32 -26 43.5 -48.5t11.5 -56.5z" horiz-adv-x="1075" glyph-name="dollar" unicode="$"/>
<glyph d="M1170 1458h-291l-665 -1487h292zM618 1087q0 151 -77 254.5t-188 103.5q-112 0 -188.5 -103.5t-76.5 -254.5q0 -150 76.5 -253.5t188.5 -103.5q111 0 188 103.5t77 253.5zM297 1087q0 62 23 110q11 20 19 28q7 9 14 11q6 -2 14 -11q8 -8 19 -28q23 -48 23 -110 q0 -61 -23 -109q-10 -20 -19 -29q-9 -10 -14 -10q-7 0 -14 10q-9 9 -19 29q-23 48 -23 109zM1046 716q-111 0 -188 -103.5t-77 -253.5q0 -151 77 -254.5t188 -103.5q112 0 188.5 103.5t76.5 254.5q0 150 -76.5 253.5t-188.5 103.5zM1046 210q-6 2 -14 11q-8 8 -19 28 q-23 48 -23 110q0 61 23 109q10 20 19 29q8 8 14 10q7 -2 15 -10q10 -10 18 -29q23 -48 23 -109q0 -62 -23 -110q-8 -18 -18 -28q-8 -9 -15 -11z" horiz-adv-x="1393" glyph-name="percent" unicode="%"/>
<glyph d="M1233 0l-200 296q42 62 79.5 184t47.5 228l-273 -1q-1 -32 -14 -76t-26 -60l-137 198q180 167 179 354q-1 131 -88.5 226t-216.5 105q-160 12 -272 -96q-111 -109 -102 -274q5 -109 96 -256q-219 -188 -219 -415q0 -197 138 -323.5t345 -112.5q144 11 258 84l42 -61h363z M515 1159q15 15 41 15q20 0 32.5 -15.5t11.5 -38.5q-4 -55 -63 -115q-37 67 -38 99q-2 39 16 55zM549 278q-77 -6 -118.5 31.5t-41.5 103.5q0 79 88 163l181 -265q-50 -29 -109 -33z" horiz-adv-x="1280" glyph-name="ampersand" unicode="&amp;"/>
<glyph d="M406 1573h-253l-88 -334h191z" horiz-adv-x="487" glyph-name="quotesingle" unicode="&apos;"/>
<glyph d="M717 -23l-145 -224q-218 141 -345 401t-127 566q0 299 121.5 555t331.5 400l151 -220q-156 -107 -246.5 -304t-90.5 -431q0 -236 95 -438t255 -305z" horiz-adv-x="750" glyph-name="parenleft" unicode="("/>
<glyph d="M166 -247l-144 224q160 103 255 305t95 438q0 234 -90.5 431t-246.5 304l151 220q210 -144 331.5 -400t121.5 -555q0 -306 -127 -566t-346 -401z" horiz-adv-x="718" glyph-name="parenright" unicode=")"/>
<glyph d="M512 1434h-193v-171l-148 85l-97 -167l148 -86l-148 -85l97 -167l148 85v-171h193v171l148 -85l97 167l-148 85l148 86l-97 167l-148 -85v171z" horiz-adv-x="838" glyph-name="asterisk" unicode="*"/>
<glyph d="M565 1055h-252v-221h-221v-252h221v-221h252v221h221v252h-221v221z" horiz-adv-x="881" glyph-name="plus" unicode="+"/>
<glyph d="M358 102h-269l-90 -334h208z" horiz-adv-x="406" glyph-name="comma" unicode=","/>
<glyph d="M88 829v-242h619v242h-619z" horiz-adv-x="785" glyph-name="hyphen" unicode="-"/>
<glyph d="M418 162q0 -71 -50.5 -121.5t-122.5 -50.5q-71 0 -121.5 50.5t-50.5 121.5q0 72 50.5 122.5t121.5 50.5q72 0 122.5 -50.5t50.5 -122.5z" horiz-adv-x="494" glyph-name="period" unicode="."/>
<glyph d="M721 1466h-267l-389 -1495h266z" horiz-adv-x="814" glyph-name="slash" unicode="/"/>
<glyph d="M588 -18q109 0 206.5 55.5t172.5 157.5q154 214 154 524q0 309 -154 523q-75 102 -172.5 157.5t-206.5 55.5t-206.5 -55.5t-172.5 -157.5q-154 -214 -154 -523q0 -310 154 -524q75 -102 172.5 -157.5t206.5 -55.5zM588 1116q30 0 64.5 -29t61.5 -79q68 -121 68 -289 q0 -169 -68 -290q-27 -50 -61.5 -79t-64.5 -29t-64.5 29t-61.5 79q-68 121 -68 290q0 168 68 289q27 50 61.5 79t64.5 29z" horiz-adv-x="1169" glyph-name="zero" unicode="0"/>
<glyph d="M560 1433h-450v-337h113v-1096h337v1433z" horiz-adv-x="670" glyph-name="one" unicode="1"/>
<glyph d="M92 1161l-5 -11q-5 -8 -13 -24q-8 -14 -9 -18l306 -144q1 2 3.5 6t3.5 7l4 8l4 7l7 14q35 66 87 93q37 18 72 18h5q2 -1 6 -1t6 -1q18 -3 40 -11q58 -27 67.5 -82.5t-34.5 -136.5q-31 -56 -131 -194q-25 -35 -39 -54q-37 -51 -41 -57q-126 -184 -136 -198 q-36 -54 -55 -81q-6 -9 -18 -25l-2 -5l-3 -3l-2 -4l-179 -263l986 -1v338h-347q19 27 33 48q18 24 39 54l19 27l18 25q43 58 72.5 101t58 89t46 83t32 76.5t20 75.5t5.5 75t-7 81q-19 114 -88.5 202.5t-166 133.5t-202.5 46q-37 0 -82 -7q-59 -10 -122 -37 q-167 -74 -258 -250z" horiz-adv-x="1105" glyph-name="two" unicode="2"/>
<glyph d="M66 467q0 -130 63.5 -241t173 -176t238.5 -65q128 0 237.5 65t173 176t63.5 241q0 101 -39.5 192.5t-111.5 158.5q58 100 58 215q0 173 -121 295.5t-292 122.5t-292 -122.5t-121 -295.5h336q0 34 22.5 58t54.5 24q48 0 77.5 -30.5t30 -70t-18.5 -78.5q-33 -55 -86 -55 h-88v-233h79q95 0 139 -51.5t37 -129.5q-5 -63 -43.5 -104.5t-94.5 -41.5q-58 0 -98.5 43t-40.5 103h-336z" horiz-adv-x="1077" glyph-name="three" unicode="3"/>
<glyph d="M964 1434h-264l-645 -932v-271h570v-231h338v231h128v338h-128zM483 569l146 211v-211h-146z" horiz-adv-x="1169" glyph-name="four" unicode="4"/>
<glyph d="M860 856q-73 76 -175 104t-204 4l20 135h350v334h-621l-98 -652l141 -89q203 62 306 -27q38 -32 55 -78.5t11 -87.5q-12 -80 -59 -129.5t-121 -45.5h-8q-3 1 -10 1l-14 2q-20 3 -35 10q-50 19 -72 63l-268 -145l-5 -3l-12 -7l-8 -4l-1 -1q78 -145 229 -208 q53 -23 110 -33q50 -8 76 -8h3q9 -1 27 -1q195 0 335 132t164 339q29 243 -116 395z" horiz-adv-x="1037" glyph-name="five" unicode="5"/>
<glyph d="M569 -8q104 0 198 40.5t166 113.5q72 72 112 168.5t40 201.5q0 207 -125.5 339t-331.5 130l250 449h-388l-329 -599q-108 -171 -108 -319q0 -216 151 -370q72 -73 167 -113.5t198 -40.5zM427 632l14 17q54 55 128 55q75 0 127 -54.5t52 -133.5q0 -78 -52 -133t-127 -55 q-74 0 -127 55.5t-53 132.5q0 64 38 116z" horiz-adv-x="1140" glyph-name="six" unicode="6"/>
<glyph d="M981 1433h-898v-336h385l-441 -1097h367z" horiz-adv-x="971" glyph-name="seven" unicode="7"/>
<glyph d="M523 -18q130 0 240.5 64.5t175 175.5t64.5 241q0 96 -42 187.5t-109 146.5q42 46 67.5 110.5t25.5 127.5q0 171 -121 292t-291 121t-290 -121t-120 -292q0 -113 84 -227q-72 -55 -117.5 -150.5t-45.5 -194.5q0 -130 64 -241t174.5 -175.5t240.5 -64.5zM533 1136 q41 0 70 -29.5t29 -71.5q0 -41 -29 -70.5t-70 -29.5q-40 0 -69 29.5t-29 70.5q0 42 29 71.5t69 29.5zM523 608q60 0 102 -42.5t42 -102.5t-42 -102.5t-102 -42.5q-58 0 -100.5 43t-42.5 102q0 60 42.5 102.5t100.5 42.5z" horiz-adv-x="1054" glyph-name="eight" unicode="8"/>
<glyph d="M567 1456q-105 0 -200 -40.5t-168 -114.5q-153 -158 -153 -375q0 -207 126.5 -341t335.5 -132l-253 -453h392l333 604q108 173 108 322q0 219 -153 375q-73 74 -168 114.5t-200 40.5zM710 810l-14 -17q-52 -57 -129 -57q-75 0 -128 56t-53 134q0 79 53 134.5t128 55.5 t128.5 -55.5t53.5 -134.5q0 -63 -39 -116z" horiz-adv-x="1141" glyph-name="nine" unicode="9"/>
<glyph d="M446 884q0 -71 -50.5 -122t-122.5 -51q-71 0 -122 51t-51 122q0 72 51 122.5t122 50.5q72 0 122.5 -50.5t50.5 -122.5zM446 198q0 -72 -50.5 -122.5t-122.5 -50.5t-122.5 50.5t-50.5 122.5t50.5 122.5t122.5 50.5t122.5 -50.5t50.5 -122.5z" horiz-adv-x="546" glyph-name="colon" unicode=":"/>
<glyph d="M441 853q0 -71 -50.5 -122t-122.5 -51q-71 0 -122 51t-51 122q0 72 51 122.5t122 50.5q72 0 122.5 -50.5t50.5 -122.5zM382 102h-276l-93 -360h214z" horiz-adv-x="523" glyph-name="semicolon" unicode=";"/>
<glyph d="M713 1200l-627 -421v-140l628 -436v305l-286 199l285 191v302z" horiz-adv-x="813" glyph-name="less" unicode="&lt;"/>
<glyph d="M99 972v-242h719v242h-719zM99 634v-242h719v242h-719z" horiz-adv-x="932" glyph-name="equal" unicode="="/>
<glyph d="M735 779l-626 421v-302l285 -191l-287 -199v-305l628 436v140z" horiz-adv-x="833" glyph-name="greater" unicode="&gt;"/>
<glyph d="M495 845l-17 -16l-18 -18q-25 -25 -36 -37q-39 -42 -69 -86q-73 -112 -73 -241h327q0 35 22.5 66.5t88.5 93.5l37 37q23 21 39 39q43 47 72 95q38 61 53.5 136t7 152.5t-51 154t-116.5 132.5q-141 107 -318 97q-24 0 -62 -8q-51 -9 -97 -28q-135 -55 -227 -169l254 -206 q41 49 96 72q12 5 36 11q2 0 6 1t6 1h6q46 2 85 -21q34 -18 48.5 -48.5t10.5 -60.5t-21 -55q-21 -30 -89 -94zM637 183q0 -80 -57 -136.5t-136 -56.5t-136 56.5t-57 136.5q0 79 57 136t136 57t136 -57t57 -136z" horiz-adv-x="989" glyph-name="question" unicode="?"/>
<glyph d="M1001 1511q-169 0 -325 -59.5t-281 -168.5q-124 -110 -201 -254.5t-94 -305.5q-17 -168 32 -322.5t156 -268.5q105 -112 255 -172t327 -60l36 1l-6 167q-314 -11 -491 178q-171 184 -142 460q13 131 75 248.5t165 204.5q102 89 229.5 137t264.5 48q130 0 238.5 -43.5 t181.5 -124.5q93 -104 113.5 -257t-28.5 -292t-148 -213q-23 -17 -56 -34l118 726l-266 3l-8 -47q-100 73 -231 73q-178 0 -314 -124q-138 -121 -162 -301q-12 -90 13 -175t82 -150q116 -132 297 -132q94 0 187 41l-16 -106q78 -10 168.5 -3.5t159.5 26.5q86 25 142 69 q194 156 230 464q18 158 -22.5 297.5t-134.5 245.5q-96 108 -237 166t-307 58zM831 505q-69 0 -110 48.5t-31 123.5q10 84 77 145t148 61q69 0 110.5 -48.5t31.5 -124.5q-11 -83 -78 -144t-148 -61z" horiz-adv-x="1796" glyph-name="at" unicode="@"/>
<glyph d="M746 1434h-259l-452 -1434h353l56 177h355l57 -177h353zM537 514l82 338l84 -338h-166z" glyph-name="A" unicode="A"/>
<glyph d="M113 0h463q207 2 347 134.5t140 327.5q0 132 -83 237.5t-209 129.5q36 28 60.5 95.5t24.5 122.5q0 163 -121.5 273.5t-298.5 112.5h-323v-1433zM446 923v210h23q54 -3 81 -42q19 -28 19 -63q0 -42 -25 -72t-75 -32q-5 0 -11 -1h-12zM735 478q0 -60 -47 -102.5t-113 -43.5 h-125v291h123q67 0 114.5 -42.5t47.5 -102.5z" horiz-adv-x="1120" glyph-name="B" unicode="B"/>
<glyph d="M817 -3q80 0 148 16l-66 319q-43 -8 -82 -8q-171 0 -288 114t-117 279q0 168 117 283t288 115q38 0 81 -8l65 321q-70 15 -146 15q-146 0 -285 -58q-137 -58 -232 -157q-103 -99 -159 -231.5t-56 -279.5q0 -148 55 -280t157 -231q100 -101 234.5 -155t285.5 -54z" horiz-adv-x="1079" glyph-name="C" unicode="C"/>
<glyph d="M395 0q154 3 290 58.5t238 154.5t157 229t55 277t-55.5 277.5t-157.5 227.5q-103 99 -240 153t-294 56h-265v-1433h272zM460 339v755q151 -25 245 -128t94 -247q0 -146 -94 -250.5t-245 -129.5z" horiz-adv-x="1200" glyph-name="D" unicode="D"/>
<glyph d="M870 1433h-757v-1433h757v333h-420v131h347v337h-347v299h420v333z" horiz-adv-x="961" glyph-name="E" unicode="E"/>
<glyph d="M898 1437h-755v-1437h336v453h312v337h-312v311h419v336z" horiz-adv-x="982" glyph-name="F" unicode="F"/>
<glyph d="M801 -25q79 0 152 16l179 44v758h-507v-337h170v-144q-165 3 -281 120.5t-116 282.5q0 166 118 284.5t285 118.5q51 0 99 -13q34 -7 56 -15l92 325q-21 3 -64 17q-87 23 -183 23q-149 0 -284.5 -57t-238.5 -160q-104 -104 -160.5 -239t-56.5 -284t56.5 -284.5 t160.5 -238.5q103 -104 238.5 -160.5t284.5 -56.5z" horiz-adv-x="1232" glyph-name="G" unicode="G"/>
<glyph d="M1101 1433h-337v-643h-294v643h-337v-1433h337v454h294v-454h337v1433z" horiz-adv-x="1224" glyph-name="H" unicode="H"/>
<glyph d="M100 1433v-1433h337v1433h-337z" horiz-adv-x="537" glyph-name="I" unicode="I"/>
<glyph d="M446 0q121 0 223.5 59.5t163.5 162.5t62 224v987h-334v-985q0 -47 -34 -80.5t-81 -33.5q-60 0 -97 52q-5 8 -11 22l-4 10l-3 6l-303 -139l12 -27l6 -12q0 -2 4 -9q58 -109 165 -173t231 -64z" horiz-adv-x="975" glyph-name="J" unicode="J"/>
<glyph d="M1198 1433h-415l-313 -435v435h-337v-1433h337v422l59 83l297 -505h390l-472 803z" horiz-adv-x="1280" glyph-name="K" unicode="K"/>
<glyph d="M470 1433h-337v-1433h756v337h-419v1096z" horiz-adv-x="949" glyph-name="L" unicode="L"/>
<glyph d="M1329 1433h-277l-321 -707l-333 707h-275v-1432h336v512l278 -513l256 487v-486h337z" horiz-adv-x="1440" glyph-name="M" unicode="M"/>
<glyph d="M1105 1433h-336v-656l-342 572l-50 83h-264l1 -1431h336v655l341 -573l50 -83h264v1433z" horiz-adv-x="1218" glyph-name="N" unicode="N"/>
<glyph d="M778 1461q-147 0 -281.5 -57t-235.5 -161q-102 -105 -158 -241.5t-56 -285.5q0 -151 55.5 -287.5t158.5 -239.5q103 -104 237 -161t280 -57q147 0 280.5 57.5t236.5 160.5q103 104 159 240.5t56 286.5q0 149 -56.5 285.5t-158.5 241.5q-101 104 -235.5 161t-281.5 57z M778 305q-164 0 -280.5 121t-116.5 290t116.5 290t280.5 121q165 0 281 -120.5t116 -290.5t-116 -290.5t-281 -120.5z" horiz-adv-x="1557" glyph-name="O" unicode="O"/>
<glyph d="M424 1437h-291v-1437h338v331q222 17 372 176t150 380q0 113 -43 213.5t-122 177.5q-79 76 -183.5 117.5t-220.5 41.5zM471 671v425q82 -14 133 -71.5t51 -137.5q0 -82 -51.5 -142t-132.5 -74z" horiz-adv-x="1061" glyph-name="P" unicode="P"/>
<glyph d="M1032 19l68 -108h346l-168 265q110 104 170.5 245t60.5 297q0 150 -56 286t-159 242q-101 104 -235.5 161t-282.5 57q-147 0 -280.5 -57.5t-236.5 -160.5q-103 -105 -159 -241.5t-56 -286.5t56.5 -286t158.5 -241q102 -104 236 -161.5t281 -57.5q133 0 256 47zM776 307 q-164 0 -281 120.5t-117 290.5t117 291t281 121t281 -121t117 -291q0 -135 -81 -247l-80 126h-345l180 -283q-36 -7 -72 -7z" horiz-adv-x="1554" glyph-name="Q" unicode="Q"/>
<glyph d="M980 886q0 112 -43 212t-122 177q-78 76 -182 117t-220 41h-290v-1433h336v332l18 2l197 -334h390l-275 468q90 78 140.5 187t50.5 231zM459 670v423q83 -13 133.5 -70t50.5 -137q0 -82 -51.5 -142t-132.5 -74z" horiz-adv-x="1100" glyph-name="R" unicode="R"/>
<glyph d="M437 319l-3 1h-3l-4 1l-9 3q-18 6 -27 10q-36 16 -63 53l-273 -187q79 -114 204 -169q38 -18 88 -31q8 -2 31 -7q16 -2 20 -2q25 -4 58 -4q186 0 321 114t151 299q17 189 -110 325q-59 60 -120 98q-29 19 -62 38q-16 9 -29 18l-47 25q-15 9 -33 17q-75 40 -100 65 q-26 24 -26.5 55t20.5 46q35 32 93 26q22 -2 46 -13t36 -24l262 200q-54 68 -137 112.5t-175 53.5q-97 10 -186.5 -18t-158.5 -89q-127 -113 -132 -284.5t115 -291.5q46 -46 103 -81l48 -29q12 -5 20 -11l10 -5l9 -5q14 -6 26 -13l18 -10q122 -69 151 -98q33 -33 30 -81 t-37 -74q-53 -41 -126 -33h1z" horiz-adv-x="985" glyph-name="S" unicode="S"/>
<glyph d="M905 1437h-854v-337h259v-1100h337v1100h258v337z" horiz-adv-x="957" glyph-name="T" unicode="T"/>
<glyph d="M602 0q201 0 346 143q68 69 105.5 158.5t37.5 187.5v944h-333v-944q0 -64 -45.5 -110t-110.5 -46q-64 0 -110 46t-46 110v944h-333v-944q0 -201 143 -346q69 -68 158.5 -105.5t187.5 -37.5z" horiz-adv-x="1211" glyph-name="U" unicode="U"/>
<glyph d="M1185 1433h-355l-214 -710l-223 710h-352l450 -1433h255z" horiz-adv-x="1231" glyph-name="V" unicode="V"/>
<glyph d="M46 1434l407 -1434h256l156 476l163 -476h256l395 1434h-347l-201 -693l-273 693l-258 -686l-206 686h-348z" horiz-adv-x="1723" glyph-name="W" unicode="W"/>
<glyph d="M1293 1433h-394l-225 -387l-237 387h-391l430 -714l-427 -719h394l226 389l239 -389h390l-430 716z" horiz-adv-x="1349" glyph-name="X" unicode="X"/>
<glyph d="M1275 1433h-376l-241 -487l-248 487h-376l458 -903v-530h336v531z" horiz-adv-x="1310" glyph-name="Y" unicode="Y"/>
<glyph d="M1194 1429h-1057v-333h502l-587 -1096h1077v333h-521z" horiz-adv-x="1229" glyph-name="Z" unicode="Z"/>
<glyph d="M511 1666h-406v-1898h406v230h-143v1438h143v230z" horiz-adv-x="590" glyph-name="bracketleft" unicode="["/>
<glyph d="M295 1466h-266l389 -1495h267z" horiz-adv-x="729" glyph-name="backslash" unicode="\"/>
<glyph d="M471 1666h-406v-230h143v-1438h-143v-230h406v1898z" horiz-adv-x="569" glyph-name="bracketright" unicode="]"/>
<glyph d="M515 1440l-421 -627h302l192 285l199 -287h305l-436 629h-141z" horiz-adv-x="1194" glyph-name="asciicircum" unicode="^"/>
<glyph d="M90 -9v-217h669v217h-669z" horiz-adv-x="849" glyph-name="underscore" unicode="_"/>
<glyph d="M267 1401h-243l177 -269h183z" horiz-adv-x="423" glyph-name="grave" unicode="`"/>
<glyph d="M746 1434h-259l-452 -1434h353l56 177h355l57 -177h353zM537 514l82 338l84 -338h-166z" glyph-name="a" unicode="a"/>
<glyph d="M113 0h463q207 2 347 134.5t140 327.5q0 132 -83 237.5t-209 129.5q36 28 60.5 95.5t24.5 122.5q0 163 -121.5 273.5t-298.5 112.5h-323v-1433zM446 923v210h23q54 -3 81 -42q19 -28 19 -63q0 -42 -25 -72t-75 -32q-5 0 -11 -1h-12zM735 478q0 -60 -47 -102.5t-113 -43.5 h-125v291h123q67 0 114.5 -42.5t47.5 -102.5z" horiz-adv-x="1120" glyph-name="b" unicode="b"/>
<glyph d="M818 -9q81 0 151 16l-67 321q-43 -8 -84 -8q-170 0 -287 115t-117 281q0 170 116.5 285.5t287.5 115.5q40 0 83 -8l66 321q-70 16 -149 16q-146 0 -285 -59q-143 -61 -233 -156q-104 -101 -159.5 -234t-55.5 -281q0 -149 55 -282t157 -230q102 -102 236.5 -157.5 t284.5 -55.5z" horiz-adv-x="1079" glyph-name="c" unicode="c"/>
<glyph d="M395 0q154 3 290 58.5t238 154.5t157 229t55 277t-55.5 277.5t-157.5 227.5q-103 99 -240 153t-294 56h-265v-1433h272zM460 339v755q151 -25 245 -128t94 -247q0 -146 -94 -250.5t-245 -129.5z" horiz-adv-x="1200" glyph-name="d" unicode="d"/>
<glyph d="M870 1433h-757v-1433h757v333h-420v131h347v337h-347v299h420v333z" horiz-adv-x="961" glyph-name="e" unicode="e"/>
<glyph d="M898 1437h-755v-1437h336v453h312v337h-312v311h419v336z" horiz-adv-x="982" glyph-name="f" unicode="f"/>
<glyph d="M801 -25q79 0 152 16l179 44v758h-507v-337h170v-144q-165 3 -281 120.5t-116 282.5q0 166 118 284.5t285 118.5q51 0 99 -13q34 -7 56 -15l92 325q-21 3 -64 17q-87 23 -183 23q-149 0 -284.5 -57t-238.5 -160q-104 -104 -160.5 -239t-56.5 -284t56.5 -284.5 t160.5 -238.5q103 -104 238.5 -160.5t284.5 -56.5z" horiz-adv-x="1232" glyph-name="g" unicode="g"/>
<glyph d="M1101 1433h-337v-643h-294v643h-337v-1433h337v454h294v-454h337v1433z" horiz-adv-x="1224" glyph-name="h" unicode="h"/>
<glyph d="M100 1433v-1433h337v1433h-337z" horiz-adv-x="537" glyph-name="i" unicode="i"/>
<glyph d="M446 0q121 0 223.5 59.5t163.5 162.5t62 224v987h-334v-985q0 -47 -34 -80.5t-81 -33.5q-60 0 -97 52q-5 8 -11 22l-4 10l-3 6l-303 -139l12 -27l6 -12q0 -2 4 -9q58 -109 165 -173t231 -64z" horiz-adv-x="975" glyph-name="j" unicode="j"/>
<glyph d="M1198 1433h-415l-313 -435v435h-337v-1433h337v422l59 83l297 -505h390l-472 803z" horiz-adv-x="1280" glyph-name="k" unicode="k"/>
<glyph d="M470 1433h-337v-1433h756v337h-419v1096z" horiz-adv-x="949" glyph-name="l" unicode="l"/>
<glyph d="M1329 1433h-277l-321 -707l-333 707h-275v-1432h336v512l278 -513l256 487v-486h337z" horiz-adv-x="1440" glyph-name="m" unicode="m"/>
<glyph d="M1105 1433h-336v-656l-342 572l-50 83h-264l1 -1431h336v655l341 -573l50 -83h264v1433z" horiz-adv-x="1218" glyph-name="n" unicode="n"/>
<glyph d="M778 1461q-147 0 -281.5 -57t-235.5 -161q-102 -105 -158 -241.5t-56 -285.5q0 -151 55.5 -287.5t158.5 -239.5q103 -104 237 -161t280 -57q147 0 280.5 57.5t236.5 160.5q103 104 159 240.5t56 286.5q0 149 -56.5 285.5t-158.5 241.5q-101 104 -235.5 161t-281.5 57z M778 305q-164 0 -280.5 121t-116.5 290t116.5 290t280.5 121q165 0 281 -120.5t116 -290.5t-116 -290.5t-281 -120.5z" horiz-adv-x="1557" glyph-name="o" unicode="o"/>
<glyph d="M424 1437h-291v-1437h338v331q222 17 372 176t150 380q0 113 -43 213.5t-122 177.5q-79 76 -183.5 117.5t-220.5 41.5zM471 671v425q82 -14 133 -71.5t51 -137.5q0 -82 -51.5 -142t-132.5 -74z" horiz-adv-x="1061" glyph-name="p" unicode="p"/>
<glyph d="M1032 19l68 -108h346l-168 265q110 104 170.5 245t60.5 297q0 150 -56 286t-159 242q-101 104 -235.5 161t-282.5 57q-147 0 -280.5 -57.5t-236.5 -160.5q-103 -105 -159 -241.5t-56 -286.5t56.5 -286t158.5 -241q102 -104 236 -161.5t281 -57.5q133 0 256 47zM776 307 q-164 0 -281 120.5t-117 290.5t117 291t281 121t281 -121t117 -291q0 -135 -81 -247l-80 126h-345l180 -283q-36 -7 -72 -7z" horiz-adv-x="1554" glyph-name="q" unicode="q"/>
<glyph d="M980 886q0 112 -43 212t-122 177q-78 76 -182 117t-220 41h-290v-1433h336v332l18 2l197 -334h390l-275 468q90 78 140.5 187t50.5 231zM459 670v423q83 -13 133.5 -70t50.5 -137q0 -82 -51.5 -142t-132.5 -74z" horiz-adv-x="1100" glyph-name="r" unicode="r"/>
<glyph d="M437 319l-3 1h-3l-4 1l-9 3q-18 6 -27 10q-36 16 -63 53l-273 -187q79 -114 204 -169q38 -18 88 -31q8 -2 31 -7q16 -2 20 -2q25 -4 58 -4q186 0 321 114t151 299q17 189 -110 325q-59 60 -120 98q-29 19 -62 38q-16 9 -29 18l-47 25q-15 9 -33 17q-75 40 -100 65 q-26 24 -26.5 55t20.5 46q35 32 93 26q22 -2 46 -13t36 -24l262 200q-54 68 -137 112.5t-175 53.5q-97 10 -186.5 -18t-158.5 -89q-127 -113 -132 -284.5t115 -291.5q46 -46 103 -81l48 -29q12 -5 20 -11l10 -5l9 -5q14 -6 26 -13l18 -10q122 -69 151 -98q33 -33 30 -81 t-37 -74q-53 -41 -126 -33h1z" horiz-adv-x="985" glyph-name="s" unicode="s"/>
<glyph d="M905 1437h-854v-337h259v-1100h337v1100h258v337z" horiz-adv-x="957" glyph-name="t" unicode="t"/>
<glyph d="M602 0q201 0 346 143q68 69 105.5 158.5t37.5 187.5v944h-333v-944q0 -64 -45.5 -110t-110.5 -46q-64 0 -110 46t-46 110v944h-333v-944q0 -201 143 -346q69 -68 158.5 -105.5t187.5 -37.5z" horiz-adv-x="1211" glyph-name="u" unicode="u"/>
<glyph d="M1185 1433h-355l-214 -710l-223 710h-352l450 -1433h255z" horiz-adv-x="1231" glyph-name="v" unicode="v"/>
<glyph d="M46 1434l407 -1434h256l156 476l163 -476h256l395 1434h-347l-201 -693l-273 693l-258 -686l-206 686h-348z" horiz-adv-x="1723" glyph-name="w" unicode="w"/>
<glyph d="M1293 1433h-394l-225 -387l-237 387h-391l430 -714l-427 -719h394l226 389l239 -389h390l-430 716z" horiz-adv-x="1349" glyph-name="x" unicode="x"/>
<glyph d="M1275 1433h-376l-241 -487l-248 487h-376l458 -903v-530h336v531z" horiz-adv-x="1310" glyph-name="y" unicode="y"/>
<glyph d="M1194 1429h-1057v-333h502l-587 -1096h1077v333h-521z" horiz-adv-x="1229" glyph-name="z" unicode="z"/>
<glyph d="M630 -281l-10 280h-57q-2 0 -3 1q-2 0 -5 1t-5 1q-15 4 -24 15q-7 7 -11.5 16.5t-7.5 21.5t-4.5 22.5t-1.5 25.5t0.5 25t2.5 27t3 24.5t3.5 24.5t2.5 20l6 38l6 37q25 138 21 230.5t-51 162.5q-14 20 -22 29q10 10 22 28q47 71 51 166.5t-22 240.5l-6 38l-5 39 q-1 4 -3 20t-3 23.5t-3 24t-2.5 26.5t-0.5 25t1.5 25.5t4 22t7.5 21t11 16.5q10 12 25 16l11 3h6l53 1l10 279h-62q-7 0 -37 -2q-34 -5 -61 -13q-87 -27 -148 -91q-117 -124 -97 -346q8 -68 10 -87l6 -42l7 -42l4 -28l5 -31q18 -124 5 -150q-7 -9 -33 -23t-50 -21l-102 -28 v-222l102 -29q22 -6 49 -20t34 -23q13 -23 -5 -139l-4 -29l-3 -13l-2 -13l-3 -20l-3 -21q-4 -23 -6 -42q-4 -25 -11 -90q-20 -222 97 -346q62 -65 148 -90q27 -8 61 -13q15 -3 37 -3h62z" horiz-adv-x="680" glyph-name="braceleft" unicode="{"/>
<glyph d="M98 1640v-1832h282v1832h-282z" horiz-adv-x="475" glyph-name="bar" unicode="|"/>
<glyph d="M67 -1l-10 -280h62q22 0 38 3q34 5 61 13q87 25 147 90q117 124 97 346l-10 90l-7 42l-3 21l-3 20l-4 26l-5 29q-18 116 -5 139q7 9 34 23t49 20l102 29v222l-102 28q-24 7 -50 21t-33 23q-14 28 6 150l4 31l2 14l3 14l12 84q7 41 10 87q20 222 -97 346q-59 64 -147 91 q-27 8 -61 13q-32 2 -38 2h-62l10 -279l54 -1h5l11 -3q15 -4 25 -16q6 -7 11 -16.5t7.5 -21t4 -22t1.5 -25.5t-0.5 -25t-2.5 -26.5t-3 -24t-3 -23.5t-3 -20l-5 -39l-6 -38q-26 -145 -22 -240.5t51 -166.5q20 -26 22 -28q-8 -9 -22 -29q-47 -70 -51 -162t22 -231l6 -37l5 -38 q0 -3 2.5 -20t3.5 -24.5t3 -24.5t2.5 -27t0.5 -25t-1.5 -25.5t-4.5 -22.5t-7.5 -21.5t-11.5 -16.5q-9 -11 -24 -15q-1 0 -5 -1t-5 -1q-1 -1 -3 -1h-57z" horiz-adv-x="687" glyph-name="braceright" unicode="}"/>
<glyph d="M1063 731l-29 34q-46 54 -124 90t-167 36q-111 0 -223 -59q-64 -34 -128 -34q-45 0 -90 20q-18 8 -25 13q-1 1 -3.5 2.5t-3.5 2.5l-2 2l-34 28l-155 -178l33 -29l2 -2l2 -1l5 -5q5 -4 17 -12q28 -19 58 -33q92 -46 197 -46q119 0 238 62q61 32 113 32q43 0 80 -20 q12 -8 21 -15q3 -2 7 -6l1 -2l2 -1l29 -32z" horiz-adv-x="1152" glyph-name="asciitilde" unicode="~"/>
<glyph d="M124 835q0 78 55.5 133.5t133.5 55.5t133.5 -55.5t55.5 -133.5t-55.5 -133.5t-133.5 -55.5t-133.5 55.5t-55.5 133.5zM480 -415v987h-334v-987h334z" horiz-adv-x="590" glyph-name="exclamdown" unicode="¡"/>
<glyph d="M993 6l-67 323q-45 -8 -84 -8q-41 0 -79 7v784q38 7 79 7q39 0 82 -8l66 323q-74 15 -148 15q-43 0 -79 -4v128h-100v-145q-244 -60 -401.5 -259t-157.5 -452q0 -256 156 -451t403 -255v-174h100v158q36 -4 79 -4q76 0 151 15zM434 717q0 119 62 216.5t167 146.5v-721 q-105 48 -167 144.5t-62 213.5z" horiz-adv-x="1065" glyph-name="cent" unicode="¢"/>
<glyph d="M177 393l-58 -51v-342h833l-1 337l-402 -1q77 154 56 303h240v169h-298q-16 26 -24 38q-38 58 -47.5 124.5t12.5 103.5q21 37 77 37q27 0 40.5 -9.5t20.5 -31.5l317 111q-43 123 -144.5 194.5t-233.5 71.5q-123 0 -220.5 -56.5t-152.5 -158.5q-49 -92 -54.5 -203 t32.5 -221h-120v-169h205q22 -47 13 -99q-12 -77 -91 -147z" horiz-adv-x="1023" glyph-name="sterling" unicode="£"/>
<glyph d="M1291 1433h-376l-241 -488l-248 488h-376l423 -834h-131v-157h166v-104h-166v-157h166v-181h336v181h155v157h-155v104h155v157h-121z" horiz-adv-x="1346" glyph-name="yen" unicode="¥"/>
<glyph d="M98 1604v-788h282v788h-282zM98 548v-788h282v788h-282z" horiz-adv-x="356" glyph-name="brokenbar" unicode="¦"/>
<glyph d="M220 1189q0 -40 -27.5 -68t-66.5 -28t-66.5 28t-27.5 68t27.5 68t66.5 28t66.5 -28t27.5 -68zM473 1189q0 -40 -27.5 -68t-66.5 -28t-66.5 28t-27.5 68t27.5 68t66.5 28t66.5 -28t27.5 -68z" horiz-adv-x="491" glyph-name="dieresis" unicode="¨"/>
<glyph d="M772 1432q-141 0 -270 -55t-226 -155q-98 -100 -152 -231t-54 -275q0 -143 54 -274.5t152 -231.5q97 -100 226 -155t270 -55q142 0 271 55t226 155q98 100 152 231.5t54 274.5q0 144 -54 275t-152 231q-97 100 -226 155t-271 55zM772 208q-99 0 -189 38.5t-159 110.5 q-145 148 -145 359t145 359q69 72 159 111t189 39q205 0 349 -150q145 -148 145 -359t-145 -359q-143 -149 -349 -149zM893 480l-12 -2q-25 -5 -48 -5q-97 0 -166.5 69t-69.5 166q0 98 69.5 167t166.5 69q22 0 47 -5l13 -2l33 165l-12 2q-43 8 -81 8q-167 0 -285.5 -118.5 t-118.5 -285.5t118.5 -285t285.5 -118q40 0 83 8l12 3z" horiz-adv-x="1547" glyph-name="copyright" unicode="©"/>
<glyph d="M728 1200l-627 -421v-140l628 -436v305l-286 199l285 191v302zM1297 1200l-627 -421v-140l628 -436v305l-286 199l285 191v302z" horiz-adv-x="1408" glyph-name="guillemotleft" unicode="«"/>
<glyph d="M802 1437q-142 0 -270.5 -55.5t-228.5 -155.5q-99 -101 -153 -232.5t-54 -276.5t54 -276.5t153 -232.5t228 -156t271 -55t271 55t228 156q98 101 152 232.5t54 276.5t-54 276.5t-152 232.5q-100 100 -229 155.5t-270 55.5zM802 208q-206 0 -349 149q-145 148 -145 360 q0 211 145 360q146 149 349 149q98 0 188.5 -39t160.5 -110q145 -149 145 -360q0 -212 -145 -360q-69 -72 -159.5 -110.5t-189.5 -38.5zM1064 821q0 121 -85.5 206t-205.5 85h-148v-733h169v152l14 2l92 -154h192l-129 223q101 89 101 219zM794 701v240q43 -8 71.5 -41.5 t28.5 -78.5q0 -44 -28.5 -78t-71.5 -42z" horiz-adv-x="1599" glyph-name="registered" unicode="®"/>
<glyph d="M90 1506v-206h708v206h-708z" horiz-adv-x="888" glyph-name="macron" unicode="¯"/>
<glyph d="M648 1243h-252v-221h-221v-252h221v-221h252v221h221v252h-221v221zM152 453v-242h750v242h-750z" horiz-adv-x="768" glyph-name="plusminus" unicode="±"/>
<glyph d="M453 1381h-243l-117 -269h183z" horiz-adv-x="496" glyph-name="acute" unicode="´"/>
<glyph horiz-adv-x="1024" glyph-name="paragraph" unicode="¶"/>
<glyph d="M53 595q0 -7 -5 -12t-12 -5t-12.5 5t-5.5 12t5 12.5t13 5.5q7 0 12 -5.5t5 -12.5z" horiz-adv-x="595" glyph-name="periodcentered" unicode="·"/>
<glyph d="M285 -441q63 0 116 35t74 92q22 50 1 110.5t-84 104.5l40 121l-170 2l-63 -190l17 -7q43 -19 76 -45t30 -44q-4 -17 -32 -17h-4q-22 1 -54 19.5t-47 42.5l-10 14l-137 -62l5 -17l1 -1v-2q1 -1 1 -2t0.5 -1.5t0.5 -1.5l9 -18q14 -28 38 -55q73 -78 192 -78z" horiz-adv-x="568" glyph-name="cedilla" unicode="¸"/>
<glyph d="M732 779l-626 421v-302l285 -191l-287 -199v-305l628 436v140zM1291 779l-626 421v-302l285 -191l-287 -199v-305l628 436v140z" horiz-adv-x="1381" glyph-name="guillemotright" unicode="»"/>
<glyph d="M381 851q0 80 57 136.5t136 56.5t136 -56.5t57 -136.5q0 -79 -57 -136t-136 -57t-136 57t-57 136zM523 189l17 16l18 18q25 25 36 37q39 42 69 86q73 112 73 241h-327q0 -35 -22.5 -66.5t-88.5 -93.5l-37 -37q-23 -21 -39 -39q-43 -47 -72 -95q-38 -61 -53.5 -136 t-7 -152.5t51 -154t116.5 -132.5q141 -107 318 -97q24 0 62 8q51 9 97 28q135 55 227 169l-254 206q-41 -49 -96 -72q-12 -5 -36 -11q-2 0 -6 -1t-6 -1h-6q-46 -2 -85 21q-34 18 -48.5 48.5t-10.5 60.5t21 55q21 30 89 94z" horiz-adv-x="1006" glyph-name="questiondown" unicode="¿"/>
<glyph d="M600 1791h-243l177 -269h183zM746 1434h-259l-452 -1434h353l56 177h355l57 -177h353zM537 514l82 338l84 -338h-166z" glyph-name="Agrave" unicode="À"/>
<glyph d="M883 1781h-243l-117 -269h183zM746 1434h-259l-452 -1434h353l56 177h355l57 -177h353zM537 514l82 338l84 -338h-166z" glyph-name="Aacute" unicode="Á"/>
<glyph d="M706 1791h-168l-178 -275l196 1l67 102l71 -103h196zM746 1434h-259l-452 -1434h353l56 177h355l57 -177h353zM537 514l82 338l84 -338h-166z" glyph-name="Acircumflex" unicode="Â"/>
<glyph d="M911 1618l-39 50q-28 35 -72.5 57t-95.5 22q-64 0 -125 -36q-20 -11 -37 -11q-12 0 -21 4l-3 2l-4 2v1l-46 42l-131 -137l46 -44q65 -61 159 -61q68 0 132 37q16 10 30 10q6 0 14 -3l4 -4h1l39 -48zM746 1434h-259l-452 -1434h353l56 177h355l57 -177h353zM537 514 l82 338l84 -338h-166z" glyph-name="Atilde" unicode="Ã"/>
<glyph d="M587 1609q0 -40 -27.5 -68t-66.5 -28t-66.5 28t-27.5 68t27.5 68t66.5 28t66.5 -28t27.5 -68zM840 1609q0 -40 -27.5 -68t-66.5 -28t-66.5 28t-27.5 68t27.5 68t66.5 28t66.5 -28t27.5 -68zM746 1434h-259l-452 -1434h353l56 177h355l57 -177h353zM537 514l82 338 l84 -338h-166z" glyph-name="Adieresis" unicode="Ä"/>
<glyph d="M746 1434l463 -1434h-353l-57 177h-355l-56 -177h-353l452 1434h3q-83 63 -83 169q0 88 61 150.5t148 62.5q86 0 147.5 -62.5t61.5 -150.5q0 -104 -83 -169h4zM616 1650q-19 0 -32 -13.5t-13 -33.5q0 -19 13 -32.5t32 -13.5q18 0 31.5 13.5t13.5 32.5q0 20 -13.5 33.5 t-31.5 13.5zM537 514h166l-84 338z" glyph-name="Aring" unicode="Å"/>
<glyph d="M1468 1434h-798l-626 -1434h327l99 227h280v-227h718v300h-418v182h347v300h-347v352h418v300zM601 527l149 343v-343h-149z" horiz-adv-x="1547" glyph-name="AE" unicode="Æ"/>
<glyph d="M85 717q0 -148 55 -280t157 -231q129 -131 311 -181l-53 -161l17 -7q43 -19 76 -45t30 -44q-4 -17 -32 -17h-4q-22 1 -54 19.5t-47 42.5l-10 14l-137 -62l5 -17l1 -1v-2q1 -1 1 -2q1 -2 1 -3l9 -18q14 -28 38 -55q73 -78 192 -78q63 0 116 35t74 92q22 50 1 110.5 t-84 104.5l22 67q16 -1 47 -1q80 0 148 16l-66 319q-43 -8 -82 -8q-171 0 -288 114t-117 279q0 168 117 283t288 115q38 0 81 -8l65 321q-70 15 -146 15q-146 0 -285 -58q-137 -58 -232 -157q-103 -99 -159 -231.5t-56 -279.5z" horiz-adv-x="1079" glyph-name="Ccedilla" unicode="Ç"/>
<glyph d="M532 1766h-243l177 -269h183zM870 1433h-757v-1433h757v333h-420v131h347v337h-347v299h420v333z" horiz-adv-x="961" glyph-name="Egrave" unicode="È"/>
<glyph d="M743 1766h-243l-117 -269h183zM870 1433h-757v-1433h757v333h-420v131h347v337h-347v299h420v333z" horiz-adv-x="961" glyph-name="Eacute" unicode="É"/>
<glyph d="M582 1776h-168l-178 -275l196 1l67 102l71 -103h196zM870 1433h-757v-1433h757v333h-420v131h347v337h-347v299h420v333z" horiz-adv-x="961" glyph-name="Ecircumflex" unicode="Ê"/>
<glyph d="M468 1596q0 -40 -27.5 -68t-66.5 -28t-66.5 28t-27.5 68t27.5 68t66.5 28t66.5 -28t27.5 -68zM721 1596q0 -40 -27.5 -68t-66.5 -28t-66.5 28t-27.5 68t27.5 68t66.5 28t66.5 -28t27.5 -68zM870 1433h-757v-1433h757v333h-420v131h347v337h-347v299h420v333z" horiz-adv-x="961" glyph-name="Edieresis" unicode="Ë"/>
<glyph d="M271 1811h-243l177 -269h183zM100 1433v-1433h337v1433h-337z" horiz-adv-x="537" glyph-name="Igrave" unicode="Ì"/>
<glyph d="M563 1782h-243l-117 -269h183zM100 1433v-1433h337v1433h-337z" horiz-adv-x="537" glyph-name="Iacute" unicode="Í"/>
<glyph d="M446 1800h-168l-178 -275l196 1l67 102l71 -103h196zM100 1433v-1433h337v1433h-337z" horiz-adv-x="537" glyph-name="Icircumflex" unicode="Î"/>
<glyph d="M278 1609q0 -40 -27.5 -68t-66.5 -28t-66.5 28t-27.5 68t27.5 68t66.5 28t66.5 -28t27.5 -68zM531 1609q0 -40 -27.5 -68t-66.5 -28t-66.5 28t-27.5 68t27.5 68t66.5 28t66.5 -28t27.5 -68zM100 1433v-1433h337v1433h-337z" horiz-adv-x="537" glyph-name="Idieresis" unicode="Ï"/>
<glyph d="M435 1433h-265v-672h-151v-157h151v-604h271q155 3 291 58.5t238 154.5t157 229t55 277t-55.5 277.5t-158.5 227.5q-102 99 -239.5 153t-293.5 56zM507 339v265h169v157h-169v333q151 -25 245 -128t94 -247q0 -146 -94 -250.5t-245 -129.5z" horiz-adv-x="1268" glyph-name="Eth" unicode="Ð"/>
<glyph d="M893 1597l-39 50q-28 35 -72.5 57t-95.5 22q-64 0 -125 -36q-20 -11 -37 -11q-12 0 -21 4l-3 2l-4 2v1l-46 42l-131 -137l46 -44q65 -61 159 -61q68 0 132 37q16 10 30 10q6 0 14 -3l4 -4h1l39 -48zM1105 1433h-336v-656l-342 572l-50 83h-264l1 -1431h336v655l341 -573 l50 -83h264v1433z" horiz-adv-x="1218" glyph-name="Ntilde" unicode="Ñ"/>
<glyph d="M771 1811h-243l177 -269h183zM778 1461q-147 0 -281.5 -57t-235.5 -161q-102 -105 -158 -241.5t-56 -285.5q0 -151 55.5 -287.5t158.5 -239.5q103 -104 237 -161t280 -57q147 0 280.5 57.5t236.5 160.5q103 104 159 240.5t56 286.5q0 149 -56.5 285.5t-158.5 241.5 q-101 104 -235.5 161t-281.5 57zM778 305q-164 0 -280.5 121t-116.5 290t116.5 290t280.5 121q165 0 281 -120.5t116 -290.5t-116 -290.5t-281 -120.5z" horiz-adv-x="1557" glyph-name="Ograve" unicode="Ò"/>
<glyph d="M1037 1791h-243l-117 -269h183zM778 1461q-147 0 -281.5 -57t-235.5 -161q-102 -105 -158 -241.5t-56 -285.5q0 -151 55.5 -287.5t158.5 -239.5q103 -104 237 -161t280 -57q147 0 280.5 57.5t236.5 160.5q103 104 159 240.5t56 286.5q0 149 -56.5 285.5t-158.5 241.5 q-101 104 -235.5 161t-281.5 57zM778 305q-164 0 -280.5 121t-116.5 290t116.5 290t280.5 121q165 0 281 -120.5t116 -290.5t-116 -290.5t-281 -120.5z" horiz-adv-x="1557" glyph-name="Oacute" unicode="Ó"/>
<glyph d="M862 1810h-168l-178 -275l196 1l67 102l71 -103h196zM778 1461q-147 0 -281.5 -57t-235.5 -161q-102 -105 -158 -241.5t-56 -285.5q0 -151 55.5 -287.5t158.5 -239.5q103 -104 237 -161t280 -57q147 0 280.5 57.5t236.5 160.5q103 104 159 240.5t56 286.5 q0 149 -56.5 285.5t-158.5 241.5q-101 104 -235.5 161t-281.5 57zM778 305q-164 0 -280.5 121t-116.5 290t116.5 290t280.5 121q165 0 281 -120.5t116 -290.5t-116 -290.5t-281 -120.5z" horiz-adv-x="1557" glyph-name="Ocircumflex" unicode="Ô"/>
<glyph d="M1079 1638l-39 50q-28 35 -72.5 57t-95.5 22q-64 0 -125 -36q-20 -11 -37 -11q-12 0 -21 4l-3 2l-4 2v1l-46 42l-131 -137l46 -44q65 -61 159 -61q68 0 132 37q16 10 30 10q6 0 14 -3l4 -4h1l39 -48zM778 1461q-147 0 -281.5 -57t-235.5 -161q-102 -105 -158 -241.5 t-56 -285.5q0 -151 55.5 -287.5t158.5 -239.5q103 -104 237 -161t280 -57q147 0 280.5 57.5t236.5 160.5q103 104 159 240.5t56 286.5q0 149 -56.5 285.5t-158.5 241.5q-101 104 -235.5 161t-281.5 57zM778 305q-164 0 -280.5 121t-116.5 290t116.5 290t280.5 121 q165 0 281 -120.5t116 -290.5t-116 -290.5t-281 -120.5z" horiz-adv-x="1557" glyph-name="Otilde" unicode="Õ"/>
<glyph d="M748 1606q0 -40 -27.5 -68t-66.5 -28t-66.5 28t-27.5 68t27.5 68t66.5 28t66.5 -28t27.5 -68zM1001 1606q0 -40 -27.5 -68t-66.5 -28t-66.5 28t-27.5 68t27.5 68t66.5 28t66.5 -28t27.5 -68zM778 1461q-147 0 -281.5 -57t-235.5 -161q-102 -105 -158 -241.5t-56 -285.5 q0 -151 55.5 -287.5t158.5 -239.5q103 -104 237 -161t280 -57q147 0 280.5 57.5t236.5 160.5q103 104 159 240.5t56 286.5q0 149 -56.5 285.5t-158.5 241.5q-101 104 -235.5 161t-281.5 57zM778 305q-164 0 -280.5 121t-116.5 290t116.5 290t280.5 121q165 0 281 -120.5 t116 -290.5t-116 -290.5t-281 -120.5z" horiz-adv-x="1557" glyph-name="Odieresis" unicode="Ö"/>
<glyph d="M1130 1348l61 155l-180 -1l-32 -86q-104 32 -210 32q-144 0 -275 -56t-231 -158q-101 -102 -155.5 -235.5t-54.5 -281.5q0 -215 114.5 -395.5t303.5 -268.5l-50 -140h175l32 88q73 -14 141 -14q145 0 275.5 56t231.5 158q100 102 155 236t55 280q0 197 -96 365t-260 266z M329 717q0 184 126 314t304 130q55 0 110 -15l-307 -822q-106 57 -169.5 162.5t-63.5 230.5zM759 274q-10 0 -38 2l296 795q81 -63 126.5 -155.5t45.5 -198.5q0 -183 -126 -313t-304 -130z" horiz-adv-x="1547" glyph-name="Oslash" unicode="Ø"/>
<glyph d="M597 1776h-243l177 -269h183zM602 0q201 0 346 143q68 69 105.5 158.5t37.5 187.5v944h-333v-944q0 -64 -45.5 -110t-110.5 -46q-64 0 -110 46t-46 110v944h-333v-944q0 -201 143 -346q69 -68 158.5 -105.5t187.5 -37.5z" horiz-adv-x="1211" glyph-name="Ugrave" unicode="Ù"/>
<glyph d="M867 1774h-243l-117 -269h183zM602 0q201 0 346 143q68 69 105.5 158.5t37.5 187.5v944h-333v-944q0 -64 -45.5 -110t-110.5 -46q-64 0 -110 46t-46 110v944h-333v-944q0 -201 143 -346q69 -68 158.5 -105.5t187.5 -37.5z" horiz-adv-x="1211" glyph-name="Uacute" unicode="Ú"/>
<glyph d="M686 1783h-168l-178 -275l196 1l67 102l71 -103h196zM602 0q201 0 346 143q68 69 105.5 158.5t37.5 187.5v944h-333v-944q0 -64 -45.5 -110t-110.5 -46q-64 0 -110 46t-46 110v944h-333v-944q0 -201 143 -346q69 -68 158.5 -105.5t187.5 -37.5z" horiz-adv-x="1211" glyph-name="Ucircumflex" unicode="Û"/>
<glyph d="M573 1599q0 -40 -27.5 -68t-66.5 -28t-66.5 28t-27.5 68t27.5 68t66.5 28t66.5 -28t27.5 -68zM826 1599q0 -40 -27.5 -68t-66.5 -28t-66.5 28t-27.5 68t27.5 68t66.5 28t66.5 -28t27.5 -68zM602 0q201 0 346 143q68 69 105.5 158.5t37.5 187.5v944h-333v-944 q0 -64 -45.5 -110t-110.5 -46q-64 0 -110 46t-46 110v944h-333v-944q0 -201 143 -346q69 -68 158.5 -105.5t187.5 -37.5z" horiz-adv-x="1211" glyph-name="Udieresis" unicode="Ü"/>
<glyph d="M915 1773h-243l-117 -269h183zM1275 1433h-376l-241 -487l-248 487h-376l458 -903v-530h336v531z" horiz-adv-x="1310" glyph-name="Yacute" unicode="Ý"/>
<glyph d="M117 -291h338v331q222 17 372 176t150 380q0 113 -43 213.5t-122 177.5q-148 143 -360 157v289h-337zM455 380v425q82 -14 133 -71.5t51 -137.5q0 -82 -51.5 -142t-132.5 -74z" horiz-adv-x="1037" glyph-name="Thorn" unicode="Þ"/>
<glyph d="M1095 428q0 -190 -142 -313t-362 -125h-74v321h74l30 2q42 5 66 14q87 29 87 101q0 56 -17.5 79t-82.5 57l-6 3l-7 4l-14 7q-17 10 -30 18q-33 21 -62 50q-70 70 -70 171q0 55 30 108q11 19 27 39q12 15 13 16l7 7l6 7q26 28 32.5 40.5t5.5 35.5q0 2 -1 4q-1 1 -1 3t-1 3 q-3 5 -12 14q-22 19 -64 19h-100v-1113h-321v1226q0 86 62 147t149 61h211q169 -1 282 -106t117 -248q5 -138 -75 -247q101 -56 157 -128q86 -113 86 -277z" horiz-adv-x="1192" glyph-name="germandbls" unicode="ß"/>
<glyph d="M600 1791h-243l177 -269h183zM746 1434h-259l-452 -1434h353l56 177h355l57 -177h353zM537 514l82 338l84 -338h-166z" glyph-name="agrave" unicode="à"/>
<glyph d="M883 1781h-243l-117 -269h183zM746 1434h-259l-452 -1434h353l56 177h355l57 -177h353zM537 514l82 338l84 -338h-166z" glyph-name="aacute" unicode="á"/>
<glyph d="M706 1791h-168l-178 -275l196 1l67 102l71 -103h196zM746 1434h-259l-452 -1434h353l56 177h355l57 -177h353zM537 514l82 338l84 -338h-166z" glyph-name="acircumflex" unicode="â"/>
<glyph d="M911 1618l-39 50q-28 35 -72.5 57t-95.5 22q-64 0 -125 -36q-20 -11 -37 -11q-12 0 -21 4l-3 2l-4 2v1l-46 42l-131 -137l46 -44q65 -61 159 -61q68 0 132 37q16 10 30 10q6 0 14 -3l4 -4h1l39 -48zM746 1434h-259l-452 -1434h353l56 177h355l57 -177h353zM537 514 l82 338l84 -338h-166z" glyph-name="atilde" unicode="ã"/>
<glyph d="M587 1609q0 -40 -27.5 -68t-66.5 -28t-66.5 28t-27.5 68t27.5 68t66.5 28t66.5 -28t27.5 -68zM840 1609q0 -40 -27.5 -68t-66.5 -28t-66.5 28t-27.5 68t27.5 68t66.5 28t66.5 -28t27.5 -68zM746 1434h-259l-452 -1434h353l56 177h355l57 -177h353zM537 514l82 338 l84 -338h-166z" glyph-name="adieresis" unicode="ä"/>
<glyph d="M746 1434l463 -1434h-353l-57 177h-355l-56 -177h-353l452 1434h3q-83 63 -83 169q0 88 61 150.5t148 62.5q86 0 147.5 -62.5t61.5 -150.5q0 -104 -83 -169h4zM616 1650q-19 0 -32 -13.5t-13 -33.5q0 -19 13 -32.5t32 -13.5q18 0 31.5 13.5t13.5 32.5q0 20 -13.5 33.5 t-31.5 13.5zM537 514h166l-84 338z" glyph-name="aring" unicode="å"/>
<glyph d="M1468 1434h-798l-626 -1434h327l99 227h280v-227h718v300h-418v182h347v300h-347v352h418v300zM601 527l149 343v-343h-149z" horiz-adv-x="1547" glyph-name="ae" unicode="æ"/>
<glyph d="M83 716q0 -148 55.5 -281t158.5 -233q127 -127 304 -179l-49 -148l17 -7q42 -18 74.5 -44t29.5 -44q-4 -16 -31 -16h-4q-22 1 -53.5 19t-46.5 42l-10 14l-135 -62l5 -16l1 -1v-2q1 -1 1 -2q1 -2 1 -3q6 -12 8 -18q14 -29 38 -54q72 -78 190 -78q62 0 114.5 35t73.5 91 q21 49 0 109t-83 103l18 53q40 -2 60 -2q79 0 150 16l-67 321q-43 -8 -83 -8q-172 0 -290 114.5t-118 280.5q0 169 118 285t290 116q39 0 82 -8l66 323q-76 14 -148 14q-151 0 -286 -58q-136 -57 -234 -156q-104 -101 -160.5 -234.5t-56.5 -281.5z" horiz-adv-x="1079" glyph-name="ccedilla" unicode="ç"/>
<glyph d="M532 1766h-243l177 -269h183zM870 1433h-757v-1433h757v333h-420v131h347v337h-347v299h420v333z" horiz-adv-x="961" glyph-name="egrave" unicode="è"/>
<glyph d="M743 1766h-243l-117 -269h183zM870 1433h-757v-1433h757v333h-420v131h347v337h-347v299h420v333z" horiz-adv-x="961" glyph-name="eacute" unicode="é"/>
<glyph d="M582 1776h-168l-178 -275l196 1l67 102l71 -103h196zM870 1433h-757v-1433h757v333h-420v131h347v337h-347v299h420v333z" horiz-adv-x="961" glyph-name="ecircumflex" unicode="ê"/>
<glyph d="M468 1596q0 -40 -27.5 -68t-66.5 -28t-66.5 28t-27.5 68t27.5 68t66.5 28t66.5 -28t27.5 -68zM721 1596q0 -40 -27.5 -68t-66.5 -28t-66.5 28t-27.5 68t27.5 68t66.5 28t66.5 -28t27.5 -68zM870 1433h-757v-1433h757v333h-420v131h347v337h-347v299h420v333z" horiz-adv-x="961" glyph-name="edieresis" unicode="ë"/>
<glyph d="M282 1811h-243l177 -269h183zM129 1433v-1433h337v1433h-337z" horiz-adv-x="585" glyph-name="igrave" unicode="ì"/>
<glyph d="M539 1783h-243l-117 -269h183zM130 1433v-1433h337v1433h-337z" horiz-adv-x="589" glyph-name="iacute" unicode="í"/>
<glyph d="M446 1800h-168l-178 -275l196 1l67 102l71 -103h196zM191 1433v-1433h337v1433h-337z" horiz-adv-x="730" glyph-name="icircumflex" unicode="î"/>
<glyph d="M288 1609q0 -40 -27.5 -68t-66.5 -28t-66.5 28t-27.5 68t27.5 68t66.5 28t66.5 -28t27.5 -68zM541 1609q0 -40 -27.5 -68t-66.5 -28t-66.5 28t-27.5 68t27.5 68t66.5 28t66.5 -28t27.5 -68zM140 1433v-1433h337v1433h-337z" horiz-adv-x="641" glyph-name="idieresis" unicode="ï"/>
<glyph d="M440 1433h-265v-672h-151v-157h151v-604h271q155 3 291 58.5t238 154.5t157 229t55 277t-55.5 277.5t-158.5 227.5q-102 99 -239.5 153t-293.5 56zM512 339v265h169v157h-169v333q151 -25 245 -128t94 -247q0 -146 -94 -250.5t-245 -129.5z" horiz-adv-x="1273" glyph-name="eth" unicode="ð"/>
<glyph d="M893 1597l-39 50q-28 35 -72.5 57t-95.5 22q-64 0 -125 -36q-20 -11 -37 -11q-12 0 -21 4l-3 2l-4 2v1l-46 42l-131 -137l46 -44q65 -61 159 -61q68 0 132 37q16 10 30 10q6 0 14 -3l4 -4h1l39 -48zM1105 1433h-336v-656l-342 572l-50 83h-264l1 -1431h336v655l341 -573 l50 -83h264v1433z" horiz-adv-x="1218" glyph-name="ntilde" unicode="ñ"/>
<glyph d="M771 1811h-243l177 -269h183zM778 1461q-147 0 -281.5 -57t-235.5 -161q-102 -105 -158 -241.5t-56 -285.5q0 -151 55.5 -287.5t158.5 -239.5q103 -104 237 -161t280 -57q147 0 280.5 57.5t236.5 160.5q103 104 159 240.5t56 286.5q0 149 -56.5 285.5t-158.5 241.5 q-101 104 -235.5 161t-281.5 57zM778 305q-164 0 -280.5 121t-116.5 290t116.5 290t280.5 121q165 0 281 -120.5t116 -290.5t-116 -290.5t-281 -120.5z" horiz-adv-x="1557" glyph-name="ograve" unicode="ò"/>
<glyph d="M1037 1791h-243l-117 -269h183zM778 1461q-147 0 -281.5 -57t-235.5 -161q-102 -105 -158 -241.5t-56 -285.5q0 -151 55.5 -287.5t158.5 -239.5q103 -104 237 -161t280 -57q147 0 280.5 57.5t236.5 160.5q103 104 159 240.5t56 286.5q0 149 -56.5 285.5t-158.5 241.5 q-101 104 -235.5 161t-281.5 57zM778 305q-164 0 -280.5 121t-116.5 290t116.5 290t280.5 121q165 0 281 -120.5t116 -290.5t-116 -290.5t-281 -120.5z" horiz-adv-x="1557" glyph-name="oacute" unicode="ó"/>
<glyph d="M862 1810h-168l-178 -275l196 1l67 102l71 -103h196zM778 1461q-147 0 -281.5 -57t-235.5 -161q-102 -105 -158 -241.5t-56 -285.5q0 -151 55.5 -287.5t158.5 -239.5q103 -104 237 -161t280 -57q147 0 280.5 57.5t236.5 160.5q103 104 159 240.5t56 286.5 q0 149 -56.5 285.5t-158.5 241.5q-101 104 -235.5 161t-281.5 57zM778 305q-164 0 -280.5 121t-116.5 290t116.5 290t280.5 121q165 0 281 -120.5t116 -290.5t-116 -290.5t-281 -120.5z" horiz-adv-x="1557" glyph-name="ocircumflex" unicode="ô"/>
<glyph d="M1079 1638l-39 50q-28 35 -72.5 57t-95.5 22q-64 0 -125 -36q-20 -11 -37 -11q-12 0 -21 4l-3 2l-4 2v1l-46 42l-131 -137l46 -44q65 -61 159 -61q68 0 132 37q16 10 30 10q6 0 14 -3l4 -4h1l39 -48zM778 1461q-147 0 -281.5 -57t-235.5 -161q-102 -105 -158 -241.5 t-56 -285.5q0 -151 55.5 -287.5t158.5 -239.5q103 -104 237 -161t280 -57q147 0 280.5 57.5t236.5 160.5q103 104 159 240.5t56 286.5q0 149 -56.5 285.5t-158.5 241.5q-101 104 -235.5 161t-281.5 57zM778 305q-164 0 -280.5 121t-116.5 290t116.5 290t280.5 121 q165 0 281 -120.5t116 -290.5t-116 -290.5t-281 -120.5z" horiz-adv-x="1557" glyph-name="otilde" unicode="õ"/>
<glyph d="M748 1606q0 -40 -27.5 -68t-66.5 -28t-66.5 28t-27.5 68t27.5 68t66.5 28t66.5 -28t27.5 -68zM1001 1606q0 -40 -27.5 -68t-66.5 -28t-66.5 28t-27.5 68t27.5 68t66.5 28t66.5 -28t27.5 -68zM778 1461q-147 0 -281.5 -57t-235.5 -161q-102 -105 -158 -241.5t-56 -285.5 q0 -151 55.5 -287.5t158.5 -239.5q103 -104 237 -161t280 -57q147 0 280.5 57.5t236.5 160.5q103 104 159 240.5t56 286.5q0 149 -56.5 285.5t-158.5 241.5q-101 104 -235.5 161t-281.5 57zM778 305q-164 0 -280.5 121t-116.5 290t116.5 290t280.5 121q165 0 281 -120.5 t116 -290.5t-116 -290.5t-281 -120.5z" horiz-adv-x="1557" glyph-name="odieresis" unicode="ö"/>
<glyph d="M621 1063q0 -71 -50.5 -122t-122.5 -51q-71 0 -122 51t-51 122q0 72 51 122.5t122 50.5q72 0 122.5 -50.5t50.5 -122.5zM80 841v-242h750v242h-750zM621 377q0 -72 -50.5 -122.5t-122.5 -50.5t-122.5 50.5t-50.5 122.5t50.5 122.5t122.5 50.5t122.5 -50.5t50.5 -122.5z " horiz-adv-x="910" glyph-name="divide" unicode="÷"/>
<glyph d="M1120 1348l61 155l-180 -1l-32 -86q-104 32 -210 32q-144 0 -275 -56t-231 -158q-101 -102 -155.5 -235.5t-54.5 -281.5q0 -215 114.5 -395.5t303.5 -268.5l-50 -140h175l32 88q73 -14 141 -14q145 0 275.5 56t231.5 158q100 102 155 236t55 280q0 197 -96 365t-260 266z M329 717q0 184 126 314t304 130q55 0 110 -15l-307 -822q-106 57 -169.5 162.5t-63.5 230.5zM759 274q-10 0 -38 2l296 795q81 -63 126.5 -155.5t45.5 -198.5q0 -183 -126 -313t-304 -130z" horiz-adv-x="1562" glyph-name="oslash" unicode="ø"/>
<glyph d="M597 1776h-243l177 -269h183zM602 0q201 0 346 143q68 69 105.5 158.5t37.5 187.5v944h-333v-944q0 -64 -45.5 -110t-110.5 -46q-64 0 -110 46t-46 110v944h-333v-944q0 -201 143 -346q69 -68 158.5 -105.5t187.5 -37.5z" horiz-adv-x="1211" glyph-name="ugrave" unicode="ù"/>
<glyph d="M867 1774h-243l-117 -269h183zM602 0q201 0 346 143q68 69 105.5 158.5t37.5 187.5v944h-333v-944q0 -64 -45.5 -110t-110.5 -46q-64 0 -110 46t-46 110v944h-333v-944q0 -201 143 -346q69 -68 158.5 -105.5t187.5 -37.5z" horiz-adv-x="1211" glyph-name="uacute" unicode="ú"/>
<glyph d="M686 1783h-168l-178 -275l196 1l67 102l71 -103h196zM602 0q201 0 346 143q68 69 105.5 158.5t37.5 187.5v944h-333v-944q0 -64 -45.5 -110t-110.5 -46q-64 0 -110 46t-46 110v944h-333v-944q0 -201 143 -346q69 -68 158.5 -105.5t187.5 -37.5z" horiz-adv-x="1211" glyph-name="ucircumflex" unicode="û"/>
<glyph d="M573 1599q0 -40 -27.5 -68t-66.5 -28t-66.5 28t-27.5 68t27.5 68t66.5 28t66.5 -28t27.5 -68zM826 1599q0 -40 -27.5 -68t-66.5 -28t-66.5 28t-27.5 68t27.5 68t66.5 28t66.5 -28t27.5 -68zM602 0q201 0 346 143q68 69 105.5 158.5t37.5 187.5v944h-333v-944 q0 -64 -45.5 -110t-110.5 -46q-64 0 -110 46t-46 110v944h-333v-944q0 -201 143 -346q69 -68 158.5 -105.5t187.5 -37.5z" horiz-adv-x="1211" glyph-name="udieresis" unicode="ü"/>
<glyph d="M915 1773h-243l-117 -269h183zM1275 1433h-376l-241 -487l-248 487h-376l458 -903v-530h336v531z" horiz-adv-x="1310" glyph-name="yacute" unicode="ý"/>
</font>
</defs>
</svg>
